<?xml version="1.0" standalone="no"?>
<!DOCTYPE svg PUBLIC "-//W3C//DTD SVG 20010904//EN"
 "http://www.w3.org/TR/2001/REC-SVG-20010904/DTD/svg10.dtd">
<svg version="1.0" xmlns="http://www.w3.org/2000/svg"
 width="347.000000pt" height="347.000000pt" viewBox="0 0 347.000000 347.000000"
 preserveAspectRatio="xMidYMid meet">
<metadata>
Created by potrace 1.14, written by Peter Selinger 2001-2017
</metadata>
<g transform="translate(0.000000,347.000000) scale(0.100000,-0.100000)"
fill="#000000" stroke="none">
<path d="M1200 3378 c0 -32 14 -175 45 -463 8 -77 15 -162 14 -190 l0 -50 -72
-42 c-191 -111 -320 -277 -321 -413 -1 -68 28 -111 94 -145 57 -29 92 -36 210
-44 l95 -6 -3 -130 c-2 -71 -7 -133 -10 -137 -4 -4 -27 0 -52 9 -80 29 -163
-4 -201 -79 -39 -77 -24 -157 42 -212 l32 -27 -25 -27 c-14 -15 -209 -223
-432 -461 -224 -239 -405 -442 -404 -450 6 -27 27 -22 65 17 43 44 56 57 516
550 322 343 341 362 374 362 29 0 34 -3 30 -17 -2 -10 -16 -61 -31 -113 -37
-136 -129 -400 -176 -505 -5 -11 -38 -85 -74 -164 -36 -79 -63 -148 -60 -153
3 -5 -21 -20 -53 -34 -71 -32 -539 -229 -608 -256 -58 -23 -75 -35 -75 -54 0
-32 36 -20 495 176 132 56 266 113 298 126 310 129 462 195 475 208 11 10 10
15 -2 25 -15 12 -111 -23 -341 -125 -32 -13 -61 -24 -66 -22 -4 2 29 31 74 64
115 86 165 130 302 268 130 130 286 320 393 477 37 54 72 98 78 99 13 0 149
-147 221 -240 66 -86 143 -210 187 -303 35 -73 96 -246 96 -272 0 -7 7 -19 16
-26 30 -25 48 16 84 190 36 170 23 346 -47 627 -4 18 1 22 38 28 55 9 123 75
132 128 12 79 -28 158 -97 189 -53 24 -93 24 -147 0 l-43 -20 -19 47 c-144
369 -220 607 -234 733 l-6 56 49 8 c69 10 268 69 338 100 131 58 263 164 296
238 30 66 28 193 -6 266 -36 82 -114 125 -114 63 0 -55 -32 -125 -79 -172 -58
-58 -153 -103 -286 -138 l-102 -26 -24 -45 c-59 -112 -157 -172 -289 -179 -97
-5 -170 16 -234 68 l-37 28 -87 -35 c-48 -19 -94 -37 -103 -40 -13 -4 -17 14
-27 114 -61 631 -54 583 -82 583 -16 0 -20 -7 -20 -32z m765 -860 c23 -148 91
-365 200 -643 191 -485 237 -660 238 -885 0 -122 -27 -292 -44 -273 -3 5 -19
42 -34 83 -77 210 -242 457 -424 633 -44 43 -85 76 -90 72 -6 -3 -34 -41 -62
-83 -205 -307 -473 -601 -703 -774 -108 -81 -112 -82 -80 -12 14 33 33 75 41
94 8 19 21 49 28 65 84 187 210 589 231 739 8 55 -3 42 242 305 89 97 161 182
160 191 -7 36 -39 15 -138 -92 -58 -62 -133 -142 -167 -178 l-62 -65 5 160 c3
88 7 166 10 173 2 7 22 12 51 13 26 1 58 4 70 7 20 6 18 9 -18 26 -22 11 -56
37 -75 58 -46 51 -48 115 -5 175 89 122 209 180 491 233 134 25 127 27 135
-22z"/>
<path d="M2756 3273 c-10 -10 -7 -90 9 -233 8 -74 26 -241 40 -370 25 -239 61
-578 90 -839 8 -80 12 -166 9 -192 -4 -31 -1 -63 9 -95 18 -55 30 -144 47
-344 15 -178 29 -223 58 -187 9 11 -17 333 -34 409 l-6 28 60 -6 c76 -8 103
-1 147 37 89 79 69 231 -38 279 -53 25 -91 25 -146 0 -24 -11 -44 -20 -46 -20
-1 0 -5 26 -8 58 -3 31 -17 163 -31 292 -14 129 -32 305 -41 390 -9 85 -24
232 -35 325 -11 94 -24 222 -30 285 -6 63 -13 129 -15 147 -5 29 -26 49 -39
36z"/>
<path d="M1717 3249 c-149 -35 -233 -212 -167 -351 25 -53 85 -113 136 -134
49 -20 150 -17 202 6 158 71 195 288 71 412 -67 67 -148 89 -242 67z"/>
<path d="M384 1761 c-54 -25 -84 -69 -91 -134 -7 -66 13 -115 61 -152 65 -50
159 -46 218 8 69 63 74 168 11 238 -53 59 -125 73 -199 40z"/>
<path d="M3205 629 c-38 -4 -169 -15 -290 -24 -121 -8 -260 -20 -310 -25 -49
-6 -209 -19 -355 -30 -378 -28 -532 -41 -557 -46 -15 -3 -23 -12 -23 -26 0
-20 3 -21 93 -15 154 10 606 47 707 57 52 5 192 17 310 25 118 9 298 24 400
33 173 16 185 18 185 37 0 17 -7 20 -45 21 -25 1 -76 -2 -115 -7z"/>
</g>
</svg>
